# xmcd CD database file
#
# Track frame offsets:
#	150
#	45756
#	82906
#	107923
#	117238
#	153960
#
# Disc length: 2452 seconds
#
# Revision: 0
# Processed by: cddbd v1.4PL0 Copyright (c) Steve Scherf et al.
# Submitted via: CDex 1.50
#
DISCID=38099206
DTITLE=Pat Metheny Group - Pat Metheny Group
DYEAR=1900
DGENRE=Jazz
TTITLE0=San Lorenzo
TTITLE1=Phase Dance
TTITLE2=Jaco
TTITLE3=April Wind
TTITLE4=April Joy
TTITLE5=Lone Jack
EXTD=
EXTT0=
EXTT1=
EXTT2=
EXTT3=
EXTT4=
EXTT5=
PLAYORDER=
